<svg width="743" height="658" viewBox="0 0 743 658" fill="none" xmlns="http://www.w3.org/2000/svg">
<g clip-path="url(#clip0_1_12)">
<path d="M372 535L866.5 -1.25H-122.501L372 535Z" fill="#66FF99"/>
<path d="M266.58 49.848C267.096 49.848 267.534 49.764 267.894 49.596C268.266 49.416 268.566 49.182 268.794 48.894C269.034 48.594 269.208 48.258 269.316 47.886C269.436 47.502 269.496 47.1 269.496 46.68V46.464H271.008V46.68C271.008 47.316 270.912 47.916 270.72 48.48C270.528 49.032 270.246 49.518 269.874 49.938C269.502 50.346 269.04 50.67 268.488 50.91C267.936 51.138 267.3 51.252 266.58 51.252C265.188 51.252 264.102 50.814 263.322 49.938C262.542 49.062 262.152 47.784 262.152 46.104V43.296C262.152 41.664 262.542 40.398 263.322 39.498C264.102 38.598 265.188 38.148 266.58 38.148C267.3 38.148 267.936 38.268 268.488 38.508C269.04 38.736 269.502 39.06 269.874 39.48C270.246 39.888 270.528 40.374 270.72 40.938C270.912 41.49 271.008 42.084 271.008 42.72V42.936H269.496V42.72C269.484 42.312 269.418 41.916 269.298 41.532C269.19 41.148 269.016 40.812 268.776 40.524C268.548 40.224 268.254 39.99 267.894 39.822C267.534 39.642 267.096 39.552 266.58 39.552C265.608 39.552 264.876 39.906 264.384 40.614C263.904 41.322 263.664 42.252 263.664 43.404V45.996C263.664 47.232 263.904 48.186 264.384 48.858C264.876 49.518 265.608 49.848 266.58 49.848ZM282.011 46.644C282.011 47.388 281.885 48.048 281.633 48.624C281.393 49.188 281.069 49.668 280.661 50.064C280.253 50.448 279.773 50.742 279.221 50.946C278.681 51.15 278.117 51.252 277.529 51.252C276.929 51.252 276.359 51.15 275.819 50.946C275.279 50.742 274.805 50.448 274.397 50.064C273.989 49.668 273.659 49.188 273.407 48.624C273.167 48.048 273.047 47.388 273.047 46.644V46.428C273.047 45.696 273.167 45.048 273.407 44.484C273.659 43.908 273.989 43.422 274.397 43.026C274.817 42.63 275.297 42.33 275.837 42.126C276.377 41.922 276.941 41.82 277.529 41.82C278.117 41.82 278.681 41.922 279.221 42.126C279.761 42.33 280.235 42.63 280.643 43.026C281.063 43.422 281.393 43.908 281.633 44.484C281.885 45.048 282.011 45.696 282.011 46.428V46.644ZM277.529 49.92C277.961 49.92 278.357 49.848 278.717 49.704C279.089 49.548 279.413 49.326 279.689 49.038C279.965 48.75 280.181 48.408 280.337 48.012C280.493 47.604 280.571 47.148 280.571 46.644V46.428C280.571 45.948 280.493 45.51 280.337 45.114C280.181 44.706 279.965 44.358 279.689 44.07C279.413 43.782 279.089 43.56 278.717 43.404C278.345 43.236 277.949 43.152 277.529 43.152C277.109 43.152 276.713 43.236 276.341 43.404C275.969 43.56 275.645 43.782 275.369 44.07C275.093 44.358 274.877 44.706 274.721 45.114C274.565 45.51 274.487 45.948 274.487 46.428V46.644C274.487 47.148 274.565 47.604 274.721 48.012C274.877 48.408 275.093 48.75 275.369 49.038C275.645 49.326 275.963 49.548 276.323 49.704C276.695 49.848 277.097 49.92 277.529 49.92ZM286.013 51H284.609V42.072H286.013V43.584H286.229C286.781 42.408 287.741 41.82 289.109 41.82C290.141 41.82 290.963 42.144 291.575 42.792C292.187 43.428 292.493 44.388 292.493 45.672V51H291.089V45.96C291.089 45.024 290.879 44.322 290.459 43.854C290.039 43.386 289.469 43.152 288.749 43.152C287.897 43.152 287.225 43.446 286.733 44.034C286.253 44.61 286.013 45.384 286.013 46.356V51ZM297.484 44.376C297.484 44.808 297.664 45.138 298.024 45.366C298.396 45.594 299.068 45.744 300.04 45.816C301.084 45.9 301.876 46.152 302.416 46.572C302.968 46.98 303.244 47.58 303.244 48.372V48.48C303.244 48.912 303.154 49.302 302.974 49.65C302.806 49.986 302.566 50.274 302.254 50.514C301.954 50.754 301.582 50.934 301.138 51.054C300.706 51.186 300.232 51.252 299.716 51.252C299.02 51.252 298.42 51.162 297.916 50.982C297.424 50.79 297.01 50.544 296.674 50.244C296.35 49.932 296.104 49.584 295.936 49.2C295.768 48.804 295.672 48.408 295.648 48.012L296.98 47.688C297.04 48.372 297.304 48.924 297.772 49.344C298.24 49.752 298.864 49.956 299.644 49.956C300.304 49.956 300.832 49.83 301.228 49.578C301.636 49.314 301.84 48.948 301.84 48.48C301.84 47.976 301.642 47.616 301.246 47.4C300.85 47.184 300.208 47.046 299.32 46.986C298.288 46.914 297.496 46.674 296.944 46.266C296.392 45.858 296.116 45.264 296.116 44.484V44.376C296.116 43.956 296.206 43.59 296.386 43.278C296.566 42.954 296.806 42.684 297.106 42.468C297.418 42.252 297.766 42.09 298.15 41.982C298.534 41.874 298.936 41.82 299.356 41.82C299.944 41.82 300.46 41.904 300.904 42.072C301.348 42.228 301.72 42.438 302.02 42.702C302.32 42.954 302.548 43.248 302.704 43.584C302.872 43.92 302.98 44.256 303.028 44.592L301.696 44.916C301.636 44.34 301.402 43.89 300.994 43.566C300.598 43.242 300.076 43.08 299.428 43.08C299.176 43.08 298.93 43.11 298.69 43.17C298.462 43.218 298.258 43.296 298.078 43.404C297.898 43.512 297.754 43.65 297.646 43.818C297.538 43.974 297.484 44.16 297.484 44.376ZM313.024 42.072H314.428V51H313.024V49.38H312.808C312.52 49.956 312.142 50.412 311.674 50.748C311.206 51.084 310.612 51.252 309.892 51.252C309.4 51.252 308.944 51.168 308.524 51C308.116 50.844 307.762 50.604 307.462 50.28C307.174 49.956 306.946 49.554 306.778 49.074C306.622 48.594 306.544 48.036 306.544 47.4V42.072H307.948V47.22C307.948 48.156 308.14 48.84 308.524 49.272C308.908 49.704 309.496 49.92 310.288 49.92C311.14 49.92 311.806 49.632 312.286 49.056C312.778 48.468 313.024 47.688 313.024 46.716V42.072ZM326.259 51H324.855V44.592C324.855 44.172 324.759 43.83 324.567 43.566C324.375 43.29 324.069 43.152 323.649 43.152C323.253 43.152 322.929 43.302 322.677 43.602C322.437 43.89 322.317 44.34 322.317 44.952V51H320.913V44.52C320.913 44.124 320.805 43.8 320.589 43.548C320.373 43.284 320.085 43.152 319.725 43.152C319.293 43.152 318.957 43.308 318.717 43.62C318.489 43.932 318.375 44.34 318.375 44.844V51H316.971V42.072H318.375V43.044H318.591C318.747 42.624 318.975 42.318 319.275 42.126C319.575 41.922 319.929 41.82 320.337 41.82C320.769 41.82 321.123 41.934 321.399 42.162C321.687 42.39 321.885 42.684 321.993 43.044H322.209C322.617 42.228 323.265 41.82 324.153 41.82C324.825 41.82 325.341 42.036 325.701 42.468C326.073 42.888 326.259 43.44 326.259 44.124V51ZM329.721 46.968C329.757 47.856 330.033 48.57 330.549 49.11C331.065 49.65 331.785 49.92 332.709 49.92C333.129 49.92 333.495 49.872 333.807 49.776C334.119 49.68 334.383 49.548 334.599 49.38C334.827 49.212 335.007 49.02 335.139 48.804C335.283 48.576 335.397 48.336 335.481 48.084L336.813 48.444C336.561 49.272 336.093 49.95 335.409 50.478C334.737 50.994 333.825 51.252 332.673 51.252C332.037 51.252 331.449 51.144 330.909 50.928C330.381 50.7 329.925 50.382 329.541 49.974C329.157 49.566 328.857 49.08 328.641 48.516C328.425 47.952 328.317 47.328 328.317 46.644V46.212C328.317 45.588 328.425 45.006 328.641 44.466C328.869 43.926 329.181 43.464 329.577 43.08C329.973 42.684 330.435 42.378 330.963 42.162C331.503 41.934 332.085 41.82 332.709 41.82C333.441 41.82 334.071 41.958 334.599 42.234C335.139 42.498 335.577 42.828 335.913 43.224C336.261 43.62 336.513 44.052 336.669 44.52C336.837 44.988 336.921 45.42 336.921 45.816V46.968H329.721ZM332.709 43.152C332.313 43.152 331.941 43.218 331.593 43.35C331.257 43.47 330.957 43.644 330.693 43.872C330.441 44.1 330.231 44.37 330.063 44.682C329.907 44.982 329.805 45.312 329.757 45.672H335.517C335.493 45.288 335.397 44.94 335.229 44.628C335.073 44.316 334.863 44.052 334.599 43.836C334.347 43.62 334.053 43.452 333.717 43.332C333.393 43.212 333.057 43.152 332.709 43.152ZM339.212 42.072H342.452V43.26H342.668C342.896 42.768 343.22 42.408 343.64 42.18C344.06 41.94 344.54 41.82 345.08 41.82C345.98 41.82 346.706 42.114 347.258 42.702C347.81 43.29 348.104 44.148 348.14 45.276L346.664 45.492C346.664 44.664 346.466 44.07 346.07 43.71C345.674 43.338 345.188 43.152 344.612 43.152C344.24 43.152 343.916 43.224 343.64 43.368C343.376 43.512 343.154 43.71 342.974 43.962C342.794 44.214 342.662 44.508 342.578 44.844C342.494 45.18 342.452 45.54 342.452 45.924V49.704H344.72V51H338.996V49.704H341.048V43.368H339.212V42.072ZM361.219 49.596H362.299V39.804H361.219V38.4H366.313C366.913 38.4 367.441 38.484 367.897 38.652C368.365 38.82 368.755 39.048 369.067 39.336C369.391 39.624 369.631 39.972 369.787 40.38C369.955 40.776 370.039 41.208 370.039 41.676V41.892C370.039 42.24 369.985 42.558 369.877 42.846C369.769 43.134 369.619 43.392 369.427 43.62C369.235 43.848 369.007 44.046 368.743 44.214C368.491 44.37 368.215 44.49 367.915 44.574V44.79C368.515 44.958 369.019 45.282 369.427 45.762C369.835 46.23 370.039 46.806 370.039 47.49V47.706C370.039 48.174 369.955 48.612 369.787 49.02C369.631 49.416 369.391 49.764 369.067 50.064C368.755 50.352 368.365 50.58 367.897 50.748C367.441 50.916 366.913 51 366.313 51H361.219V49.596ZM363.811 49.596H366.205C366.913 49.596 367.489 49.422 367.933 49.074C368.377 48.714 368.599 48.222 368.599 47.598V47.49C368.599 46.842 368.389 46.332 367.969 45.96C367.549 45.576 366.979 45.384 366.259 45.384H363.811V49.596ZM363.811 43.98H366.259C366.979 43.98 367.549 43.794 367.969 43.422C368.389 43.05 368.599 42.54 368.599 41.892V41.784C368.599 41.172 368.377 40.692 367.933 40.344C367.489 39.984 366.913 39.804 366.205 39.804H363.811V43.98ZM379.261 49.488H379.045C378.757 50.088 378.355 50.532 377.839 50.82C377.335 51.108 376.801 51.252 376.237 51.252C375.649 51.252 375.103 51.156 374.599 50.964C374.095 50.76 373.651 50.466 373.267 50.082C372.895 49.686 372.601 49.206 372.385 48.642C372.169 48.078 372.061 47.424 372.061 46.68V46.392C372.061 45.66 372.169 45.012 372.385 44.448C372.601 43.884 372.895 43.41 373.267 43.026C373.651 42.63 374.095 42.33 374.599 42.126C375.103 41.922 375.637 41.82 376.201 41.82C376.813 41.82 377.365 41.958 377.857 42.234C378.361 42.498 378.757 42.912 379.045 43.476H379.261V42.072H380.665V49.164C380.665 49.524 380.827 49.704 381.151 49.704H381.601V51H380.647C380.239 51 379.903 50.868 379.639 50.604C379.387 50.34 379.261 50.004 379.261 49.596V49.488ZM376.381 49.92C376.801 49.92 377.185 49.842 377.533 49.686C377.893 49.53 378.199 49.308 378.451 49.02C378.703 48.732 378.901 48.39 379.045 47.994C379.189 47.586 379.261 47.136 379.261 46.644V46.428C379.261 45.948 379.189 45.51 379.045 45.114C378.901 44.706 378.697 44.358 378.433 44.07C378.181 43.782 377.875 43.56 377.515 43.404C377.167 43.236 376.789 43.152 376.381 43.152C375.961 43.152 375.577 43.23 375.229 43.386C374.881 43.542 374.575 43.764 374.311 44.052C374.059 44.328 373.861 44.67 373.717 45.078C373.573 45.474 373.501 45.912 373.501 46.392V46.68C373.501 47.7 373.765 48.498 374.293 49.074C374.833 49.638 375.529 49.92 376.381 49.92ZM385.206 51H383.802V42.072H385.206V43.584H385.422C385.974 42.408 386.934 41.82 388.302 41.82C389.334 41.82 390.156 42.144 390.768 42.792C391.38 43.428 391.686 44.388 391.686 45.672V51H390.282V45.96C390.282 45.024 390.072 44.322 389.652 43.854C389.232 43.386 388.662 43.152 387.942 43.152C387.09 43.152 386.418 43.446 385.926 44.034C385.446 44.61 385.206 45.384 385.206 46.356V51ZM397.128 45.78H397.434L400.836 42.072H402.564V42.18L398.856 46.266V46.59L402.996 50.892V51H401.268L397.47 47.076H397.128V51H395.724V38.4H397.128V45.78ZM408.617 39.408C408.617 39.06 408.737 38.766 408.977 38.526C409.229 38.274 409.529 38.148 409.877 38.148C410.225 38.148 410.519 38.274 410.759 38.526C411.011 38.766 411.137 39.06 411.137 39.408C411.137 39.756 411.011 40.056 410.759 40.308C410.519 40.548 410.225 40.668 409.877 40.668C409.529 40.668 409.229 40.548 408.977 40.308C408.737 40.056 408.617 39.756 408.617 39.408ZM406.061 49.704H409.193V43.368H406.385V42.072H410.597V49.704H413.513V51H406.061V49.704ZM418.271 51H416.867V42.072H418.271V43.584H418.487C419.039 42.408 419.999 41.82 421.367 41.82C422.399 41.82 423.221 42.144 423.833 42.792C424.445 43.428 424.751 44.388 424.751 45.672V51H423.347V45.96C423.347 45.024 423.137 44.322 422.717 43.854C422.297 43.386 421.727 43.152 421.007 43.152C420.155 43.152 419.483 43.446 418.991 44.034C418.511 44.61 418.271 45.384 418.271 46.356V51ZM434.674 49.632H434.458C434.17 50.172 433.774 50.58 433.27 50.856C432.778 51.12 432.238 51.252 431.65 51.252C431.05 51.252 430.486 51.15 429.958 50.946C429.43 50.742 428.962 50.448 428.554 50.064C428.158 49.68 427.84 49.206 427.6 48.642C427.372 48.066 427.258 47.412 427.258 46.68V46.392C427.258 45.672 427.378 45.03 427.618 44.466C427.858 43.89 428.176 43.41 428.572 43.026C428.968 42.63 429.43 42.33 429.958 42.126C430.486 41.922 431.038 41.82 431.614 41.82C432.262 41.82 432.826 41.964 433.306 42.252C433.798 42.528 434.182 42.936 434.458 43.476H434.674V42.072H436.078V53.196C436.078 53.604 435.946 53.94 435.682 54.204C435.43 54.468 435.1 54.6 434.692 54.6H428.878V53.304H434.188C434.512 53.304 434.674 53.124 434.674 52.764V49.632ZM431.686 49.92C432.106 49.92 432.496 49.842 432.856 49.686C433.216 49.53 433.528 49.308 433.792 49.02C434.068 48.732 434.284 48.39 434.44 47.994C434.596 47.586 434.674 47.136 434.674 46.644V46.428C434.674 45.948 434.596 45.51 434.44 45.114C434.284 44.706 434.068 44.358 433.792 44.07C433.528 43.782 433.21 43.56 432.838 43.404C432.478 43.236 432.094 43.152 431.686 43.152C431.266 43.152 430.87 43.23 430.498 43.386C430.138 43.542 429.82 43.764 429.544 44.052C429.28 44.34 429.07 44.682 428.914 45.078C428.77 45.474 428.698 45.912 428.698 46.392V46.68C428.698 47.184 428.77 47.634 428.914 48.03C429.07 48.426 429.28 48.768 429.544 49.056C429.82 49.332 430.138 49.548 430.498 49.704C430.858 49.848 431.254 49.92 431.686 49.92ZM456.573 47.868H451.173L450.255 51H448.635L452.451 38.4H455.295L459.111 51H457.491L456.573 47.868ZM453.765 39.048L451.587 46.464H456.159L453.981 39.048H453.765ZM462.033 54.6H460.629V42.072H462.033V43.476H462.249C462.561 42.936 462.993 42.528 463.545 42.252C464.097 41.964 464.697 41.82 465.345 41.82C465.897 41.82 466.419 41.922 466.911 42.126C467.403 42.33 467.835 42.624 468.207 43.008C468.591 43.392 468.891 43.866 469.107 44.43C469.335 44.994 469.449 45.636 469.449 46.356V46.716C469.449 47.448 469.341 48.096 469.125 48.66C468.909 49.224 468.609 49.698 468.225 50.082C467.853 50.466 467.415 50.76 466.911 50.964C466.407 51.156 465.873 51.252 465.309 51.252C465.021 51.252 464.727 51.216 464.427 51.144C464.127 51.084 463.839 50.988 463.563 50.856C463.299 50.712 463.053 50.544 462.825 50.352C462.597 50.148 462.405 49.908 462.249 49.632H462.033V54.6ZM465.021 49.92C465.453 49.92 465.849 49.848 466.209 49.704C466.569 49.548 466.881 49.332 467.145 49.056C467.421 48.78 467.631 48.444 467.775 48.048C467.931 47.652 468.009 47.208 468.009 46.716V46.356C468.009 45.876 467.931 45.444 467.775 45.06C467.631 44.664 467.421 44.328 467.145 44.052C466.881 43.764 466.563 43.542 466.191 43.386C465.831 43.23 465.441 43.152 465.021 43.152C464.601 43.152 464.211 43.236 463.851 43.404C463.491 43.56 463.173 43.782 462.897 44.07C462.633 44.358 462.423 44.706 462.267 45.114C462.111 45.51 462.033 45.948 462.033 46.428V46.644C462.033 47.136 462.111 47.586 462.267 47.994C462.423 48.39 462.633 48.732 462.897 49.02C463.173 49.308 463.491 49.53 463.851 49.686C464.211 49.842 464.601 49.92 465.021 49.92ZM473.054 54.6H471.65V42.072H473.054V43.476H473.27C473.582 42.936 474.014 42.528 474.566 42.252C475.118 41.964 475.718 41.82 476.366 41.82C476.918 41.82 477.44 41.922 477.932 42.126C478.424 42.33 478.856 42.624 479.228 43.008C479.612 43.392 479.912 43.866 480.128 44.43C480.356 44.994 480.47 45.636 480.47 46.356V46.716C480.47 47.448 480.362 48.096 480.146 48.66C479.93 49.224 479.63 49.698 479.246 50.082C478.874 50.466 478.436 50.76 477.932 50.964C477.428 51.156 476.894 51.252 476.33 51.252C476.042 51.252 475.748 51.216 475.448 51.144C475.148 51.084 474.86 50.988 474.584 50.856C474.32 50.712 474.074 50.544 473.846 50.352C473.618 50.148 473.426 49.908 473.27 49.632H473.054V54.6ZM476.042 49.92C476.474 49.92 476.87 49.848 477.23 49.704C477.59 49.548 477.902 49.332 478.166 49.056C478.442 48.78 478.652 48.444 478.796 48.048C478.952 47.652 479.03 47.208 479.03 46.716V46.356C479.03 45.876 478.952 45.444 478.796 45.06C478.652 44.664 478.442 44.328 478.166 44.052C477.902 43.764 477.584 43.542 477.212 43.386C476.852 43.23 476.462 43.152 476.042 43.152C475.622 43.152 475.232 43.236 474.872 43.404C474.512 43.56 474.194 43.782 473.918 44.07C473.654 44.358 473.444 44.706 473.288 45.114C473.132 45.51 473.054 45.948 473.054 46.428V46.644C473.054 47.136 473.132 47.586 473.288 47.994C473.444 48.39 473.654 48.732 473.918 49.02C474.194 49.308 474.512 49.53 474.872 49.686C475.232 49.842 475.622 49.92 476.042 49.92Z" fill="black"/>
</g>
<g clip-path="url(#clip1_1_12)">
<path d="M372 630L866.5 93.75H-122.501L372 630Z" fill="#66FF99"/>
<path d="M277.58 144.848C278.096 144.848 278.534 144.764 278.894 144.596C279.266 144.416 279.566 144.182 279.794 143.894C280.034 143.594 280.208 143.258 280.316 142.886C280.436 142.502 280.496 142.1 280.496 141.68V141.464H282.008V141.68C282.008 142.316 281.912 142.916 281.72 143.48C281.528 144.032 281.246 144.518 280.874 144.938C280.502 145.346 280.04 145.67 279.488 145.91C278.936 146.138 278.3 146.252 277.58 146.252C276.188 146.252 275.102 145.814 274.322 144.938C273.542 144.062 273.152 142.784 273.152 141.104V138.296C273.152 136.664 273.542 135.398 274.322 134.498C275.102 133.598 276.188 133.148 277.58 133.148C278.3 133.148 278.936 133.268 279.488 133.508C280.04 133.736 280.502 134.06 280.874 134.48C281.246 134.888 281.528 135.374 281.72 135.938C281.912 136.49 282.008 137.084 282.008 137.72V137.936H280.496V137.72C280.484 137.312 280.418 136.916 280.298 136.532C280.19 136.148 280.016 135.812 279.776 135.524C279.548 135.224 279.254 134.99 278.894 134.822C278.534 134.642 278.096 134.552 277.58 134.552C276.608 134.552 275.876 134.906 275.384 135.614C274.904 136.322 274.664 137.252 274.664 138.404V140.996C274.664 142.232 274.904 143.186 275.384 143.858C275.876 144.518 276.608 144.848 277.58 144.848ZM284.083 137.072H287.323V138.26H287.539C287.767 137.768 288.091 137.408 288.511 137.18C288.931 136.94 289.411 136.82 289.951 136.82C290.851 136.82 291.577 137.114 292.129 137.702C292.681 138.29 292.975 139.148 293.011 140.276L291.535 140.492C291.535 139.664 291.337 139.07 290.941 138.71C290.545 138.338 290.059 138.152 289.483 138.152C289.111 138.152 288.787 138.224 288.511 138.368C288.247 138.512 288.025 138.71 287.845 138.962C287.665 139.214 287.533 139.508 287.449 139.844C287.365 140.18 287.323 140.54 287.323 140.924V144.704H289.591V146H283.867V144.704H285.919V138.368H284.083V137.072ZM302.089 144.38H301.873C301.585 144.956 301.207 145.412 300.739 145.748C300.271 146.084 299.677 146.252 298.957 146.252C298.465 146.252 298.009 146.168 297.589 146C297.181 145.844 296.827 145.604 296.527 145.28C296.239 144.956 296.011 144.554 295.843 144.074C295.687 143.594 295.609 143.036 295.609 142.4V137.072H297.013V142.22C297.013 143.156 297.205 143.84 297.589 144.272C297.973 144.704 298.561 144.92 299.353 144.92C300.205 144.92 300.871 144.632 301.351 144.056C301.843 143.468 302.089 142.688 302.089 141.716V137.072H303.493V148.196C303.493 148.604 303.361 148.94 303.097 149.204C302.845 149.468 302.515 149.6 302.107 149.6H297.013V148.304H301.603C301.927 148.304 302.089 148.124 302.089 147.764V144.38ZM307.71 149.6H306.306V137.072H307.71V138.476H307.926C308.238 137.936 308.67 137.528 309.222 137.252C309.774 136.964 310.374 136.82 311.022 136.82C311.574 136.82 312.096 136.922 312.588 137.126C313.08 137.33 313.512 137.624 313.884 138.008C314.268 138.392 314.568 138.866 314.784 139.43C315.012 139.994 315.126 140.636 315.126 141.356V141.716C315.126 142.448 315.018 143.096 314.802 143.66C314.586 144.224 314.286 144.698 313.902 145.082C313.53 145.466 313.092 145.76 312.588 145.964C312.084 146.156 311.55 146.252 310.986 146.252C310.698 146.252 310.404 146.216 310.104 146.144C309.804 146.084 309.516 145.988 309.24 145.856C308.976 145.712 308.73 145.544 308.502 145.352C308.274 145.148 308.082 144.908 307.926 144.632H307.71V149.6ZM310.698 144.92C311.13 144.92 311.526 144.848 311.886 144.704C312.246 144.548 312.558 144.332 312.822 144.056C313.098 143.78 313.308 143.444 313.452 143.048C313.608 142.652 313.686 142.208 313.686 141.716V141.356C313.686 140.876 313.608 140.444 313.452 140.06C313.308 139.664 313.098 139.328 312.822 139.052C312.558 138.764 312.24 138.542 311.868 138.386C311.508 138.23 311.118 138.152 310.698 138.152C310.278 138.152 309.888 138.236 309.528 138.404C309.168 138.56 308.85 138.782 308.574 139.07C308.31 139.358 308.1 139.706 307.944 140.114C307.788 140.51 307.71 140.948 307.71 141.428V141.644C307.71 142.136 307.788 142.586 307.944 142.994C308.1 143.39 308.31 143.732 308.574 144.02C308.85 144.308 309.168 144.53 309.528 144.686C309.888 144.842 310.278 144.92 310.698 144.92ZM317.346 137.072H320.154V133.4H321.558V137.072H325.014V138.368H321.558V144.164C321.558 144.524 321.72 144.704 322.044 144.704H324.582V146H321.54C321.132 146 320.796 145.868 320.532 145.604C320.28 145.34 320.154 145.004 320.154 144.596V138.368H317.346V137.072ZM337.097 141.644C337.097 142.388 336.971 143.048 336.719 143.624C336.479 144.188 336.155 144.668 335.747 145.064C335.339 145.448 334.859 145.742 334.307 145.946C333.767 146.15 333.203 146.252 332.615 146.252C332.015 146.252 331.445 146.15 330.905 145.946C330.365 145.742 329.891 145.448 329.483 145.064C329.075 144.668 328.745 144.188 328.493 143.624C328.253 143.048 328.133 142.388 328.133 141.644V141.428C328.133 140.696 328.253 140.048 328.493 139.484C328.745 138.908 329.075 138.422 329.483 138.026C329.903 137.63 330.383 137.33 330.923 137.126C331.463 136.922 332.027 136.82 332.615 136.82C333.203 136.82 333.767 136.922 334.307 137.126C334.847 137.33 335.321 137.63 335.729 138.026C336.149 138.422 336.479 138.908 336.719 139.484C336.971 140.048 337.097 140.696 337.097 141.428V141.644ZM332.615 144.92C333.047 144.92 333.443 144.848 333.803 144.704C334.175 144.548 334.499 144.326 334.775 144.038C335.051 143.75 335.267 143.408 335.423 143.012C335.579 142.604 335.657 142.148 335.657 141.644V141.428C335.657 140.948 335.579 140.51 335.423 140.114C335.267 139.706 335.051 139.358 334.775 139.07C334.499 138.782 334.175 138.56 333.803 138.404C333.431 138.236 333.035 138.152 332.615 138.152C332.195 138.152 331.799 138.236 331.427 138.404C331.055 138.56 330.731 138.782 330.455 139.07C330.179 139.358 329.963 139.706 329.807 140.114C329.651 140.51 329.573 140.948 329.573 141.428V141.644C329.573 142.148 329.651 142.604 329.807 143.012C329.963 143.408 330.179 143.75 330.455 144.038C330.731 144.326 331.049 144.548 331.409 144.704C331.781 144.848 332.183 144.92 332.615 144.92ZM350.23 138.296C350.23 136.664 350.62 135.398 351.4 134.498C352.18 133.598 353.266 133.148 354.658 133.148C356.05 133.148 357.136 133.598 357.916 134.498C358.696 135.398 359.086 136.664 359.086 138.296V141.104C359.086 142.784 358.696 144.062 357.916 144.938C357.136 145.814 356.05 146.252 354.658 146.252C353.266 146.252 352.18 145.814 351.4 144.938C350.62 144.062 350.23 142.784 350.23 141.104V138.296ZM354.658 144.848C355.63 144.848 356.356 144.518 356.836 143.858C357.328 143.186 357.574 142.232 357.574 140.996V138.404C357.574 137.252 357.328 136.322 356.836 135.614C356.356 134.906 355.63 134.552 354.658 134.552C353.686 134.552 352.954 134.906 352.462 135.614C351.982 136.322 351.742 137.252 351.742 138.404V140.996C351.742 142.232 351.982 143.186 352.462 143.858C352.954 144.518 353.686 144.848 354.658 144.848ZM363.142 146H361.738V137.072H363.142V138.584H363.358C363.91 137.408 364.87 136.82 366.238 136.82C367.27 136.82 368.092 137.144 368.704 137.792C369.316 138.428 369.622 139.388 369.622 140.672V146H368.218V140.96C368.218 140.024 368.008 139.322 367.588 138.854C367.168 138.386 366.598 138.152 365.878 138.152C365.026 138.152 364.354 138.446 363.862 139.034C363.382 139.61 363.142 140.384 363.142 141.356V146ZM374.001 140.672H379.401V141.968H374.001V140.672ZM383.277 137.072H386.517V138.26H386.733C386.961 137.768 387.285 137.408 387.705 137.18C388.125 136.94 388.605 136.82 389.145 136.82C390.045 136.82 390.771 137.114 391.323 137.702C391.875 138.29 392.169 139.148 392.205 140.276L390.729 140.492C390.729 139.664 390.531 139.07 390.135 138.71C389.739 138.338 389.253 138.152 388.677 138.152C388.305 138.152 387.981 138.224 387.705 138.368C387.441 138.512 387.219 138.71 387.039 138.962C386.859 139.214 386.727 139.508 386.643 139.844C386.559 140.18 386.517 140.54 386.517 140.924V144.704H388.785V146H383.061V144.704H385.113V138.368H383.277V137.072ZM401.282 144.488H401.066C400.778 145.088 400.376 145.532 399.86 145.82C399.356 146.108 398.822 146.252 398.258 146.252C397.67 146.252 397.124 146.156 396.62 145.964C396.116 145.76 395.672 145.466 395.288 145.082C394.916 144.686 394.622 144.206 394.406 143.642C394.19 143.078 394.082 142.424 394.082 141.68V141.392C394.082 140.66 394.19 140.012 394.406 139.448C394.622 138.884 394.916 138.41 395.288 138.026C395.672 137.63 396.116 137.33 396.62 137.126C397.124 136.922 397.658 136.82 398.222 136.82C398.834 136.82 399.386 136.958 399.878 137.234C400.382 137.498 400.778 137.912 401.066 138.476H401.282V137.072H402.686V144.164C402.686 144.524 402.848 144.704 403.172 144.704H403.622V146H402.668C402.26 146 401.924 145.868 401.66 145.604C401.408 145.34 401.282 145.004 401.282 144.596V144.488ZM398.402 144.92C398.822 144.92 399.206 144.842 399.554 144.686C399.914 144.53 400.22 144.308 400.472 144.02C400.724 143.732 400.922 143.39 401.066 142.994C401.21 142.586 401.282 142.136 401.282 141.644V141.428C401.282 140.948 401.21 140.51 401.066 140.114C400.922 139.706 400.718 139.358 400.454 139.07C400.202 138.782 399.896 138.56 399.536 138.404C399.188 138.236 398.81 138.152 398.402 138.152C397.982 138.152 397.598 138.23 397.25 138.386C396.902 138.542 396.596 138.764 396.332 139.052C396.08 139.328 395.882 139.67 395.738 140.078C395.594 140.474 395.522 140.912 395.522 141.392V141.68C395.522 142.7 395.786 143.498 396.314 144.074C396.854 144.638 397.55 144.92 398.402 144.92ZM414.41 146H413.006V139.592C413.006 139.172 412.91 138.83 412.718 138.566C412.526 138.29 412.22 138.152 411.8 138.152C411.404 138.152 411.08 138.302 410.828 138.602C410.588 138.89 410.468 139.34 410.468 139.952V146H409.064V139.52C409.064 139.124 408.956 138.8 408.74 138.548C408.524 138.284 408.236 138.152 407.876 138.152C407.444 138.152 407.108 138.308 406.868 138.62C406.64 138.932 406.526 139.34 406.526 139.844V146H405.122V137.072H406.526V138.044H406.742C406.898 137.624 407.126 137.318 407.426 137.126C407.726 136.922 408.08 136.82 408.488 136.82C408.92 136.82 409.274 136.934 409.55 137.162C409.838 137.39 410.036 137.684 410.144 138.044H410.36C410.768 137.228 411.416 136.82 412.304 136.82C412.976 136.82 413.492 137.036 413.852 137.468C414.224 137.888 414.41 138.44 414.41 139.124V146ZM417.925 149.6H416.521V137.072H417.925V138.476H418.141C418.453 137.936 418.885 137.528 419.437 137.252C419.989 136.964 420.589 136.82 421.237 136.82C421.789 136.82 422.311 136.922 422.803 137.126C423.295 137.33 423.727 137.624 424.099 138.008C424.483 138.392 424.783 138.866 424.999 139.43C425.227 139.994 425.341 140.636 425.341 141.356V141.716C425.341 142.448 425.233 143.096 425.017 143.66C424.801 144.224 424.501 144.698 424.117 145.082C423.745 145.466 423.307 145.76 422.803 145.964C422.299 146.156 421.765 146.252 421.201 146.252C420.913 146.252 420.619 146.216 420.319 146.144C420.019 146.084 419.731 145.988 419.455 145.856C419.191 145.712 418.945 145.544 418.717 145.352C418.489 145.148 418.297 144.908 418.141 144.632H417.925V149.6ZM420.913 144.92C421.345 144.92 421.741 144.848 422.101 144.704C422.461 144.548 422.773 144.332 423.037 144.056C423.313 143.78 423.523 143.444 423.667 143.048C423.823 142.652 423.901 142.208 423.901 141.716V141.356C423.901 140.876 423.823 140.444 423.667 140.06C423.523 139.664 423.313 139.328 423.037 139.052C422.773 138.764 422.455 138.542 422.083 138.386C421.723 138.23 421.333 138.152 420.913 138.152C420.493 138.152 420.103 138.236 419.743 138.404C419.383 138.56 419.065 138.782 418.789 139.07C418.525 139.358 418.315 139.706 418.159 140.114C418.003 140.51 417.925 140.948 417.925 141.428V141.644C417.925 142.136 418.003 142.586 418.159 142.994C418.315 143.39 418.525 143.732 418.789 144.02C419.065 144.308 419.383 144.53 419.743 144.686C420.103 144.842 420.493 144.92 420.913 144.92ZM445.53 142.868H440.13L439.212 146H437.592L441.408 133.4H444.252L448.068 146H446.448L445.53 142.868ZM442.722 134.048L440.544 141.464H445.116L442.938 134.048H442.722ZM450.99 149.6H449.586V137.072H450.99V138.476H451.206C451.518 137.936 451.95 137.528 452.502 137.252C453.054 136.964 453.654 136.82 454.302 136.82C454.854 136.82 455.376 136.922 455.868 137.126C456.36 137.33 456.792 137.624 457.164 138.008C457.548 138.392 457.848 138.866 458.064 139.43C458.292 139.994 458.406 140.636 458.406 141.356V141.716C458.406 142.448 458.298 143.096 458.082 143.66C457.866 144.224 457.566 144.698 457.182 145.082C456.81 145.466 456.372 145.76 455.868 145.964C455.364 146.156 454.83 146.252 454.266 146.252C453.978 146.252 453.684 146.216 453.384 146.144C453.084 146.084 452.796 145.988 452.52 145.856C452.256 145.712 452.01 145.544 451.782 145.352C451.554 145.148 451.362 144.908 451.206 144.632H450.99V149.6ZM453.978 144.92C454.41 144.92 454.806 144.848 455.166 144.704C455.526 144.548 455.838 144.332 456.102 144.056C456.378 143.78 456.588 143.444 456.732 143.048C456.888 142.652 456.966 142.208 456.966 141.716V141.356C456.966 140.876 456.888 140.444 456.732 140.06C456.588 139.664 456.378 139.328 456.102 139.052C455.838 138.764 455.52 138.542 455.148 138.386C454.788 138.23 454.398 138.152 453.978 138.152C453.558 138.152 453.168 138.236 452.808 138.404C452.448 138.56 452.13 138.782 451.854 139.07C451.59 139.358 451.38 139.706 451.224 140.114C451.068 140.51 450.99 140.948 450.99 141.428V141.644C450.99 142.136 451.068 142.586 451.224 142.994C451.38 143.39 451.59 143.732 451.854 144.02C452.13 144.308 452.448 144.53 452.808 144.686C453.168 144.842 453.558 144.92 453.978 144.92ZM462.011 149.6H460.607V137.072H462.011V138.476H462.227C462.539 137.936 462.971 137.528 463.523 137.252C464.075 136.964 464.675 136.82 465.323 136.82C465.875 136.82 466.397 136.922 466.889 137.126C467.381 137.33 467.813 137.624 468.185 138.008C468.569 138.392 468.869 138.866 469.085 139.43C469.313 139.994 469.427 140.636 469.427 141.356V141.716C469.427 142.448 469.319 143.096 469.103 143.66C468.887 144.224 468.587 144.698 468.203 145.082C467.831 145.466 467.393 145.76 466.889 145.964C466.385 146.156 465.851 146.252 465.287 146.252C464.999 146.252 464.705 146.216 464.405 146.144C464.105 146.084 463.817 145.988 463.541 145.856C463.277 145.712 463.031 145.544 462.803 145.352C462.575 145.148 462.383 144.908 462.227 144.632H462.011V149.6ZM464.999 144.92C465.431 144.92 465.827 144.848 466.187 144.704C466.547 144.548 466.859 144.332 467.123 144.056C467.399 143.78 467.609 143.444 467.753 143.048C467.909 142.652 467.987 142.208 467.987 141.716V141.356C467.987 140.876 467.909 140.444 467.753 140.06C467.609 139.664 467.399 139.328 467.123 139.052C466.859 138.764 466.541 138.542 466.169 138.386C465.809 138.23 465.419 138.152 464.999 138.152C464.579 138.152 464.189 138.236 463.829 138.404C463.469 138.56 463.151 138.782 462.875 139.07C462.611 139.358 462.401 139.706 462.245 140.114C462.089 140.51 462.011 140.948 462.011 141.428V141.644C462.011 142.136 462.089 142.586 462.245 142.994C462.401 143.39 462.611 143.732 462.875 144.02C463.151 144.308 463.469 144.53 463.829 144.686C464.189 144.842 464.579 144.92 464.999 144.92Z" fill="black"/>
</g>
<g clip-path="url(#clip2_1_12)">
<path d="M372 635L866.5 98.75H-122.501L372 635Z" fill="#66FF99"/>
<path d="M347.54 241H344.786L343.616 229.048H343.4L342.23 241H339.476L338.198 228.4H339.566L340.772 240.352H340.988L342.122 228.4H344.894L346.028 240.352H346.244L347.45 228.4H348.818L347.54 241ZM357.067 239.488H356.851C356.563 240.088 356.161 240.532 355.645 240.82C355.141 241.108 354.607 241.252 354.043 241.252C353.455 241.252 352.909 241.156 352.405 240.964C351.901 240.76 351.457 240.466 351.073 240.082C350.701 239.686 350.407 239.206 350.191 238.642C349.975 238.078 349.867 237.424 349.867 236.68V236.392C349.867 235.66 349.975 235.012 350.191 234.448C350.407 233.884 350.701 233.41 351.073 233.026C351.457 232.63 351.901 232.33 352.405 232.126C352.909 231.922 353.443 231.82 354.007 231.82C354.619 231.82 355.171 231.958 355.663 232.234C356.167 232.498 356.563 232.912 356.851 233.476H357.067V232.072H358.471V239.164C358.471 239.524 358.633 239.704 358.957 239.704H359.407V241H358.453C358.045 241 357.709 240.868 357.445 240.604C357.193 240.34 357.067 240.004 357.067 239.596V239.488ZM354.187 239.92C354.607 239.92 354.991 239.842 355.339 239.686C355.699 239.53 356.005 239.308 356.257 239.02C356.509 238.732 356.707 238.39 356.851 237.994C356.995 237.586 357.067 237.136 357.067 236.644V236.428C357.067 235.948 356.995 235.51 356.851 235.114C356.707 234.706 356.503 234.358 356.239 234.07C355.987 233.782 355.681 233.56 355.321 233.404C354.973 233.236 354.595 233.152 354.187 233.152C353.767 233.152 353.383 233.23 353.035 233.386C352.687 233.542 352.381 233.764 352.117 234.052C351.865 234.328 351.667 234.67 351.523 235.078C351.379 235.474 351.307 235.912 351.307 236.392V236.68C351.307 237.7 351.571 238.498 352.099 239.074C352.639 239.638 353.335 239.92 354.187 239.92ZM361.609 239.704H364.849V229.696H361.717V228.4H366.253V239.704H369.493V241H361.609V239.704ZM372.63 239.704H375.87V229.696H372.738V228.4H377.274V239.704H380.514V241H372.63V239.704ZM384.678 236.968C384.714 237.856 384.99 238.57 385.506 239.11C386.022 239.65 386.742 239.92 387.666 239.92C388.086 239.92 388.452 239.872 388.764 239.776C389.076 239.68 389.34 239.548 389.556 239.38C389.784 239.212 389.964 239.02 390.096 238.804C390.24 238.576 390.354 238.336 390.438 238.084L391.77 238.444C391.518 239.272 391.05 239.95 390.366 240.478C389.694 240.994 388.782 241.252 387.63 241.252C386.994 241.252 386.406 241.144 385.866 240.928C385.338 240.7 384.882 240.382 384.498 239.974C384.114 239.566 383.814 239.08 383.598 238.516C383.382 237.952 383.274 237.328 383.274 236.644V236.212C383.274 235.588 383.382 235.006 383.598 234.466C383.826 233.926 384.138 233.464 384.534 233.08C384.93 232.684 385.392 232.378 385.92 232.162C386.46 231.934 387.042 231.82 387.666 231.82C388.398 231.82 389.028 231.958 389.556 232.234C390.096 232.498 390.534 232.828 390.87 233.224C391.218 233.62 391.47 234.052 391.626 234.52C391.794 234.988 391.878 235.42 391.878 235.816V236.968H384.678ZM387.666 233.152C387.27 233.152 386.898 233.218 386.55 233.35C386.214 233.47 385.914 233.644 385.65 233.872C385.398 234.1 385.188 234.37 385.02 234.682C384.864 234.982 384.762 235.312 384.714 235.672H390.474C390.45 235.288 390.354 234.94 390.186 234.628C390.03 234.316 389.82 234.052 389.556 233.836C389.304 233.62 389.01 233.452 388.674 233.332C388.35 233.212 388.014 233.152 387.666 233.152ZM394.367 232.072H397.175V228.4H398.579V232.072H402.035V233.368H398.579V239.164C398.579 239.524 398.741 239.704 399.065 239.704H401.603V241H398.561C398.153 241 397.817 240.868 397.553 240.604C397.301 240.34 397.175 240.004 397.175 239.596V233.368H394.367V232.072Z" fill="black"/>
</g>
<g clip-path="url(#clip3_1_12)">
<path d="M372 640L866.5 103.75H-122.501L372 640Z" fill="#66FF99"/>
<path d="M308.478 334.632H308.262C308.118 334.908 307.932 335.148 307.704 335.352C307.488 335.556 307.248 335.724 306.984 335.856C306.732 335.988 306.462 336.084 306.174 336.144C305.886 336.216 305.61 336.252 305.346 336.252C304.746 336.252 304.188 336.15 303.672 335.946C303.156 335.742 302.7 335.448 302.304 335.064C301.92 334.68 301.614 334.206 301.386 333.642C301.17 333.066 301.062 332.412 301.062 331.68V331.392C301.062 330.672 301.176 330.03 301.404 329.466C301.632 328.89 301.938 328.41 302.322 328.026C302.706 327.63 303.156 327.33 303.672 327.126C304.188 326.922 304.734 326.82 305.31 326.82C305.922 326.82 306.492 326.958 307.02 327.234C307.56 327.498 307.974 327.912 308.262 328.476H308.478V323.4H309.882V336H308.478V334.632ZM305.49 334.92C305.91 334.92 306.3 334.842 306.66 334.686C307.02 334.53 307.332 334.308 307.596 334.02C307.872 333.732 308.088 333.39 308.244 332.994C308.4 332.586 308.478 332.136 308.478 331.644V331.428C308.478 330.948 308.4 330.51 308.244 330.114C308.088 329.706 307.872 329.358 307.596 329.07C307.332 328.782 307.014 328.56 306.642 328.404C306.282 328.236 305.898 328.152 305.49 328.152C305.07 328.152 304.674 328.23 304.302 328.386C303.942 328.542 303.624 328.764 303.348 329.052C303.084 329.34 302.874 329.682 302.718 330.078C302.574 330.474 302.502 330.912 302.502 331.392V331.68C302.502 332.184 302.574 332.634 302.718 333.03C302.874 333.426 303.084 333.768 303.348 334.056C303.624 334.332 303.942 334.548 304.302 334.704C304.662 334.848 305.058 334.92 305.49 334.92ZM319.229 332.868H313.829L312.911 336H311.291L315.107 323.4H317.951L321.767 336H320.147L319.229 332.868ZM316.421 324.048L314.243 331.464H318.815L316.637 324.048H316.421ZM324.689 339.6H323.285V327.072H324.689V328.476H324.905C325.217 327.936 325.649 327.528 326.201 327.252C326.753 326.964 327.353 326.82 328.001 326.82C328.553 326.82 329.075 326.922 329.567 327.126C330.059 327.33 330.491 327.624 330.863 328.008C331.247 328.392 331.547 328.866 331.763 329.43C331.991 329.994 332.105 330.636 332.105 331.356V331.716C332.105 332.448 331.997 333.096 331.781 333.66C331.565 334.224 331.265 334.698 330.881 335.082C330.509 335.466 330.071 335.76 329.567 335.964C329.063 336.156 328.529 336.252 327.965 336.252C327.677 336.252 327.383 336.216 327.083 336.144C326.783 336.084 326.495 335.988 326.219 335.856C325.955 335.712 325.709 335.544 325.481 335.352C325.253 335.148 325.061 334.908 324.905 334.632H324.689V339.6ZM327.677 334.92C328.109 334.92 328.505 334.848 328.865 334.704C329.225 334.548 329.537 334.332 329.801 334.056C330.077 333.78 330.287 333.444 330.431 333.048C330.587 332.652 330.665 332.208 330.665 331.716V331.356C330.665 330.876 330.587 330.444 330.431 330.06C330.287 329.664 330.077 329.328 329.801 329.052C329.537 328.764 329.219 328.542 328.847 328.386C328.487 328.23 328.097 328.152 327.677 328.152C327.257 328.152 326.867 328.236 326.507 328.404C326.147 328.56 325.829 328.782 325.553 329.07C325.289 329.358 325.079 329.706 324.923 330.114C324.767 330.51 324.689 330.948 324.689 331.428V331.644C324.689 332.136 324.767 332.586 324.923 332.994C325.079 333.39 325.289 333.732 325.553 334.02C325.829 334.308 326.147 334.53 326.507 334.686C326.867 334.842 327.257 334.92 327.677 334.92ZM335.71 339.6H334.306V327.072H335.71V328.476H335.926C336.238 327.936 336.67 327.528 337.222 327.252C337.774 326.964 338.374 326.82 339.022 326.82C339.574 326.82 340.096 326.922 340.588 327.126C341.08 327.33 341.512 327.624 341.884 328.008C342.268 328.392 342.568 328.866 342.784 329.43C343.012 329.994 343.126 330.636 343.126 331.356V331.716C343.126 332.448 343.018 333.096 342.802 333.66C342.586 334.224 342.286 334.698 341.902 335.082C341.53 335.466 341.092 335.76 340.588 335.964C340.084 336.156 339.55 336.252 338.986 336.252C338.698 336.252 338.404 336.216 338.104 336.144C337.804 336.084 337.516 335.988 337.24 335.856C336.976 335.712 336.73 335.544 336.502 335.352C336.274 335.148 336.082 334.908 335.926 334.632H335.71V339.6ZM338.698 334.92C339.13 334.92 339.526 334.848 339.886 334.704C340.246 334.548 340.558 334.332 340.822 334.056C341.098 333.78 341.308 333.444 341.452 333.048C341.608 332.652 341.686 332.208 341.686 331.716V331.356C341.686 330.876 341.608 330.444 341.452 330.06C341.308 329.664 341.098 329.328 340.822 329.052C340.558 328.764 340.24 328.542 339.868 328.386C339.508 328.23 339.118 328.152 338.698 328.152C338.278 328.152 337.888 328.236 337.528 328.404C337.168 328.56 336.85 328.782 336.574 329.07C336.31 329.358 336.1 329.706 335.944 330.114C335.788 330.51 335.71 330.948 335.71 331.428V331.644C335.71 332.136 335.788 332.586 335.944 332.994C336.1 333.39 336.31 333.732 336.574 334.02C336.85 334.308 337.168 334.53 337.528 334.686C337.888 334.842 338.278 334.92 338.698 334.92ZM356.817 323.4H364.557V324.804H358.329V328.98H364.449V330.384H358.329V336H356.817V323.4ZM367.191 327.072H370.431V328.26H370.647C370.875 327.768 371.199 327.408 371.619 327.18C372.039 326.94 372.519 326.82 373.059 326.82C373.959 326.82 374.685 327.114 375.237 327.702C375.789 328.29 376.083 329.148 376.119 330.276L374.643 330.492C374.643 329.664 374.445 329.07 374.049 328.71C373.653 328.338 373.167 328.152 372.591 328.152C372.219 328.152 371.895 328.224 371.619 328.368C371.355 328.512 371.133 328.71 370.953 328.962C370.773 329.214 370.641 329.508 370.557 329.844C370.473 330.18 370.431 330.54 370.431 330.924V334.704H372.699V336H366.975V334.704H369.027V328.368H367.191V327.072ZM387.14 331.644C387.14 332.388 387.014 333.048 386.762 333.624C386.522 334.188 386.198 334.668 385.79 335.064C385.382 335.448 384.902 335.742 384.35 335.946C383.81 336.15 383.246 336.252 382.658 336.252C382.058 336.252 381.488 336.15 380.948 335.946C380.408 335.742 379.934 335.448 379.526 335.064C379.118 334.668 378.788 334.188 378.536 333.624C378.296 333.048 378.176 332.388 378.176 331.644V331.428C378.176 330.696 378.296 330.048 378.536 329.484C378.788 328.908 379.118 328.422 379.526 328.026C379.946 327.63 380.426 327.33 380.966 327.126C381.506 326.922 382.07 326.82 382.658 326.82C383.246 326.82 383.81 326.922 384.35 327.126C384.89 327.33 385.364 327.63 385.772 328.026C386.192 328.422 386.522 328.908 386.762 329.484C387.014 330.048 387.14 330.696 387.14 331.428V331.644ZM382.658 334.92C383.09 334.92 383.486 334.848 383.846 334.704C384.218 334.548 384.542 334.326 384.818 334.038C385.094 333.75 385.31 333.408 385.466 333.012C385.622 332.604 385.7 332.148 385.7 331.644V331.428C385.7 330.948 385.622 330.51 385.466 330.114C385.31 329.706 385.094 329.358 384.818 329.07C384.542 328.782 384.218 328.56 383.846 328.404C383.474 328.236 383.078 328.152 382.658 328.152C382.238 328.152 381.842 328.236 381.47 328.404C381.098 328.56 380.774 328.782 380.498 329.07C380.222 329.358 380.006 329.706 379.85 330.114C379.694 330.51 379.616 330.948 379.616 331.428V331.644C379.616 332.148 379.694 332.604 379.85 333.012C380.006 333.408 380.222 333.75 380.498 334.038C380.774 334.326 381.092 334.548 381.452 334.704C381.824 334.848 382.226 334.92 382.658 334.92ZM391.142 336H389.738V327.072H391.142V328.584H391.358C391.91 327.408 392.87 326.82 394.238 326.82C395.27 326.82 396.092 327.144 396.704 327.792C397.316 328.428 397.622 329.388 397.622 330.672V336H396.218V330.96C396.218 330.024 396.008 329.322 395.588 328.854C395.168 328.386 394.598 328.152 393.878 328.152C393.026 328.152 392.354 328.446 391.862 329.034C391.382 329.61 391.142 330.384 391.142 331.356V336ZM400.453 327.072H403.261V323.4H404.665V327.072H408.121V328.368H404.665V334.164C404.665 334.524 404.827 334.704 405.151 334.704H407.689V336H404.647C404.239 336 403.903 335.868 403.639 335.604C403.387 335.34 403.261 335.004 403.261 334.596V328.368H400.453V327.072ZM412.807 331.968C412.843 332.856 413.119 333.57 413.635 334.11C414.151 334.65 414.871 334.92 415.795 334.92C416.215 334.92 416.581 334.872 416.893 334.776C417.205 334.68 417.469 334.548 417.685 334.38C417.913 334.212 418.093 334.02 418.225 333.804C418.369 333.576 418.483 333.336 418.567 333.084L419.899 333.444C419.647 334.272 419.179 334.95 418.495 335.478C417.823 335.994 416.911 336.252 415.759 336.252C415.123 336.252 414.535 336.144 413.995 335.928C413.467 335.7 413.011 335.382 412.627 334.974C412.243 334.566 411.943 334.08 411.727 333.516C411.511 332.952 411.403 332.328 411.403 331.644V331.212C411.403 330.588 411.511 330.006 411.727 329.466C411.955 328.926 412.267 328.464 412.663 328.08C413.059 327.684 413.521 327.378 414.049 327.162C414.589 326.934 415.171 326.82 415.795 326.82C416.527 326.82 417.157 326.958 417.685 327.234C418.225 327.498 418.663 327.828 418.999 328.224C419.347 328.62 419.599 329.052 419.755 329.52C419.923 329.988 420.007 330.42 420.007 330.816V331.968H412.807ZM415.795 328.152C415.399 328.152 415.027 328.218 414.679 328.35C414.343 328.47 414.043 328.644 413.779 328.872C413.527 329.1 413.317 329.37 413.149 329.682C412.993 329.982 412.891 330.312 412.843 330.672H418.603C418.579 330.288 418.483 329.94 418.315 329.628C418.159 329.316 417.949 329.052 417.685 328.836C417.433 328.62 417.139 328.452 416.803 328.332C416.479 328.212 416.143 328.152 415.795 328.152ZM424.206 336H422.802V327.072H424.206V328.584H424.422C424.974 327.408 425.934 326.82 427.302 326.82C428.334 326.82 429.156 327.144 429.768 327.792C430.38 328.428 430.686 329.388 430.686 330.672V336H429.282V330.96C429.282 330.024 429.072 329.322 428.652 328.854C428.232 328.386 427.662 328.152 426.942 328.152C426.09 328.152 425.418 328.446 424.926 329.034C424.446 329.61 424.206 330.384 424.206 331.356V336ZM440.736 334.632H440.52C440.376 334.908 440.19 335.148 439.962 335.352C439.746 335.556 439.506 335.724 439.242 335.856C438.99 335.988 438.72 336.084 438.432 336.144C438.144 336.216 437.868 336.252 437.604 336.252C437.004 336.252 436.446 336.15 435.93 335.946C435.414 335.742 434.958 335.448 434.562 335.064C434.178 334.68 433.872 334.206 433.644 333.642C433.428 333.066 433.32 332.412 433.32 331.68V331.392C433.32 330.672 433.434 330.03 433.662 329.466C433.89 328.89 434.196 328.41 434.58 328.026C434.964 327.63 435.414 327.33 435.93 327.126C436.446 326.922 436.992 326.82 437.568 326.82C438.18 326.82 438.75 326.958 439.278 327.234C439.818 327.498 440.232 327.912 440.52 328.476H440.736V323.4H442.14V336H440.736V334.632ZM437.748 334.92C438.168 334.92 438.558 334.842 438.918 334.686C439.278 334.53 439.59 334.308 439.854 334.02C440.13 333.732 440.346 333.39 440.502 332.994C440.658 332.586 440.736 332.136 440.736 331.644V331.428C440.736 330.948 440.658 330.51 440.502 330.114C440.346 329.706 440.13 329.358 439.854 329.07C439.59 328.782 439.272 328.56 438.9 328.404C438.54 328.236 438.156 328.152 437.748 328.152C437.328 328.152 436.932 328.23 436.56 328.386C436.2 328.542 435.882 328.764 435.606 329.052C435.342 329.34 435.132 329.682 434.976 330.078C434.832 330.474 434.76 330.912 434.76 331.392V331.68C434.76 332.184 434.832 332.634 434.976 333.03C435.132 333.426 435.342 333.768 435.606 334.056C435.882 334.332 436.2 334.548 436.56 334.704C436.92 334.848 437.316 334.92 437.748 334.92Z" fill="black"/>
</g>
<g clip-path="url(#clip4_1_12)">
<path d="M372 645L866.5 108.75H-122.501L372 645Z" fill="#66FF99"/>
<path d="M297.478 422.036C297.478 421.628 297.394 421.268 297.226 420.956C297.07 420.644 296.854 420.386 296.578 420.182C296.302 419.978 295.984 419.822 295.624 419.714C295.264 419.606 294.886 419.552 294.49 419.552C294.142 419.552 293.812 419.6 293.5 419.696C293.188 419.78 292.906 419.906 292.654 420.074C292.414 420.242 292.222 420.452 292.078 420.704C291.934 420.944 291.862 421.226 291.862 421.55V421.658C291.862 422.006 291.934 422.306 292.078 422.558C292.222 422.798 292.432 423.008 292.708 423.188C292.996 423.356 293.35 423.5 293.77 423.62C294.19 423.728 294.682 423.824 295.246 423.908C296.566 424.112 297.538 424.502 298.162 425.078C298.786 425.642 299.098 426.404 299.098 427.364V427.58C299.098 428.12 299.002 428.618 298.81 429.074C298.63 429.518 298.354 429.902 297.982 430.226C297.622 430.55 297.172 430.802 296.632 430.982C296.092 431.162 295.468 431.252 294.76 431.252C293.956 431.252 293.242 431.138 292.618 430.91C292.006 430.67 291.49 430.346 291.07 429.938C290.662 429.518 290.35 429.032 290.134 428.48C289.918 427.916 289.81 427.304 289.81 426.644V426.104H291.322V426.536C291.322 427.64 291.622 428.468 292.222 429.02C292.834 429.572 293.68 429.848 294.76 429.848C295.696 429.848 296.398 429.644 296.866 429.236C297.346 428.816 297.586 428.264 297.586 427.58V427.472C297.586 426.812 297.34 426.308 296.848 425.96C296.368 425.612 295.582 425.36 294.49 425.204C293.854 425.12 293.278 424.994 292.762 424.826C292.258 424.646 291.826 424.418 291.466 424.142C291.106 423.854 290.83 423.512 290.638 423.116C290.446 422.72 290.35 422.252 290.35 421.712V421.496C290.35 421.004 290.452 420.554 290.656 420.146C290.86 419.738 291.142 419.384 291.502 419.084C291.874 418.784 292.312 418.556 292.816 418.4C293.332 418.232 293.896 418.148 294.508 418.148C295.216 418.148 295.846 418.25 296.398 418.454C296.962 418.658 297.436 418.934 297.82 419.282C298.204 419.618 298.492 420.02 298.684 420.488C298.888 420.944 298.99 421.424 298.99 421.928V422.684H297.478V422.036ZM310.173 431H308.769V424.592C308.769 424.172 308.673 423.83 308.481 423.566C308.289 423.29 307.983 423.152 307.563 423.152C307.167 423.152 306.843 423.302 306.591 423.602C306.351 423.89 306.231 424.34 306.231 424.952V431H304.827V424.52C304.827 424.124 304.719 423.8 304.503 423.548C304.287 423.284 303.999 423.152 303.639 423.152C303.207 423.152 302.871 423.308 302.631 423.62C302.403 423.932 302.289 424.34 302.289 424.844V431H300.885V422.072H302.289V423.044H302.505C302.661 422.624 302.889 422.318 303.189 422.126C303.489 421.922 303.843 421.82 304.251 421.82C304.683 421.82 305.037 421.934 305.313 422.162C305.601 422.39 305.799 422.684 305.907 423.044H306.123C306.531 422.228 307.179 421.82 308.067 421.82C308.739 421.82 309.255 422.036 309.615 422.468C309.987 422.888 310.173 423.44 310.173 424.124V431ZM319.089 429.488H318.873C318.585 430.088 318.183 430.532 317.667 430.82C317.163 431.108 316.629 431.252 316.065 431.252C315.477 431.252 314.931 431.156 314.427 430.964C313.923 430.76 313.479 430.466 313.095 430.082C312.723 429.686 312.429 429.206 312.213 428.642C311.997 428.078 311.889 427.424 311.889 426.68V426.392C311.889 425.66 311.997 425.012 312.213 424.448C312.429 423.884 312.723 423.41 313.095 423.026C313.479 422.63 313.923 422.33 314.427 422.126C314.931 421.922 315.465 421.82 316.029 421.82C316.641 421.82 317.193 421.958 317.685 422.234C318.189 422.498 318.585 422.912 318.873 423.476H319.089V422.072H320.493V429.164C320.493 429.524 320.655 429.704 320.979 429.704H321.429V431H320.475C320.067 431 319.731 430.868 319.467 430.604C319.215 430.34 319.089 430.004 319.089 429.596V429.488ZM316.209 429.92C316.629 429.92 317.013 429.842 317.361 429.686C317.721 429.53 318.027 429.308 318.279 429.02C318.531 428.732 318.729 428.39 318.873 427.994C319.017 427.586 319.089 427.136 319.089 426.644V426.428C319.089 425.948 319.017 425.51 318.873 425.114C318.729 424.706 318.525 424.358 318.261 424.07C318.009 423.782 317.703 423.56 317.343 423.404C316.995 423.236 316.617 423.152 316.209 423.152C315.789 423.152 315.405 423.23 315.057 423.386C314.709 423.542 314.403 423.764 314.139 424.052C313.887 424.328 313.689 424.67 313.545 425.078C313.401 425.474 313.329 425.912 313.329 426.392V426.68C313.329 427.7 313.593 428.498 314.121 429.074C314.661 429.638 315.357 429.92 316.209 429.92ZM323.126 422.072H326.366V423.26H326.582C326.81 422.768 327.134 422.408 327.554 422.18C327.974 421.94 328.454 421.82 328.994 421.82C329.894 421.82 330.62 422.114 331.172 422.702C331.724 423.29 332.018 424.148 332.054 425.276L330.578 425.492C330.578 424.664 330.38 424.07 329.984 423.71C329.588 423.338 329.102 423.152 328.526 423.152C328.154 423.152 327.83 423.224 327.554 423.368C327.29 423.512 327.068 423.71 326.888 423.962C326.708 424.214 326.576 424.508 326.492 424.844C326.408 425.18 326.366 425.54 326.366 425.924V429.704H328.634V431H322.91V429.704H324.962V423.368H323.126V422.072ZM334.346 422.072H337.154V418.4H338.558V422.072H342.014V423.368H338.558V429.164C338.558 429.524 338.72 429.704 339.044 429.704H341.582V431H338.54C338.132 431 337.796 430.868 337.532 430.604C337.28 430.34 337.154 430.004 337.154 429.596V423.368H334.346V422.072ZM360.709 429.848C361.225 429.848 361.663 429.764 362.023 429.596C362.395 429.416 362.695 429.182 362.923 428.894C363.163 428.594 363.337 428.258 363.445 427.886C363.565 427.502 363.625 427.1 363.625 426.68V426.464H365.137V426.68C365.137 427.316 365.041 427.916 364.849 428.48C364.657 429.032 364.375 429.518 364.003 429.938C363.631 430.346 363.169 430.67 362.617 430.91C362.065 431.138 361.429 431.252 360.709 431.252C359.317 431.252 358.231 430.814 357.451 429.938C356.671 429.062 356.281 427.784 356.281 426.104V423.296C356.281 421.664 356.671 420.398 357.451 419.498C358.231 418.598 359.317 418.148 360.709 418.148C361.429 418.148 362.065 418.268 362.617 418.508C363.169 418.736 363.631 419.06 364.003 419.48C364.375 419.888 364.657 420.374 364.849 420.938C365.041 421.49 365.137 422.084 365.137 422.72V422.936H363.625V422.72C363.613 422.312 363.547 421.916 363.427 421.532C363.319 421.148 363.145 420.812 362.905 420.524C362.677 420.224 362.383 419.99 362.023 419.822C361.663 419.642 361.225 419.552 360.709 419.552C359.737 419.552 359.005 419.906 358.513 420.614C358.033 421.322 357.793 422.252 357.793 423.404V425.996C357.793 427.232 358.033 428.186 358.513 428.858C359.005 429.518 359.737 429.848 360.709 429.848ZM376.14 426.644C376.14 427.388 376.014 428.048 375.762 428.624C375.522 429.188 375.198 429.668 374.79 430.064C374.382 430.448 373.902 430.742 373.35 430.946C372.81 431.15 372.246 431.252 371.658 431.252C371.058 431.252 370.488 431.15 369.948 430.946C369.408 430.742 368.934 430.448 368.526 430.064C368.118 429.668 367.788 429.188 367.536 428.624C367.296 428.048 367.176 427.388 367.176 426.644V426.428C367.176 425.696 367.296 425.048 367.536 424.484C367.788 423.908 368.118 423.422 368.526 423.026C368.946 422.63 369.426 422.33 369.966 422.126C370.506 421.922 371.07 421.82 371.658 421.82C372.246 421.82 372.81 421.922 373.35 422.126C373.89 422.33 374.364 422.63 374.772 423.026C375.192 423.422 375.522 423.908 375.762 424.484C376.014 425.048 376.14 425.696 376.14 426.428V426.644ZM371.658 429.92C372.09 429.92 372.486 429.848 372.846 429.704C373.218 429.548 373.542 429.326 373.818 429.038C374.094 428.75 374.31 428.408 374.466 428.012C374.622 427.604 374.7 427.148 374.7 426.644V426.428C374.7 425.948 374.622 425.51 374.466 425.114C374.31 424.706 374.094 424.358 373.818 424.07C373.542 423.782 373.218 423.56 372.846 423.404C372.474 423.236 372.078 423.152 371.658 423.152C371.238 423.152 370.842 423.236 370.47 423.404C370.098 423.56 369.774 423.782 369.498 424.07C369.222 424.358 369.006 424.706 368.85 425.114C368.694 425.51 368.616 425.948 368.616 426.428V426.644C368.616 427.148 368.694 427.604 368.85 428.012C369.006 428.408 369.222 428.75 369.498 429.038C369.774 429.326 370.092 429.548 370.452 429.704C370.824 429.848 371.226 429.92 371.658 429.92ZM380.142 431H378.738V422.072H380.142V423.584H380.358C380.91 422.408 381.87 421.82 383.238 421.82C384.27 421.82 385.092 422.144 385.704 422.792C386.316 423.428 386.622 424.388 386.622 425.672V431H385.218V425.96C385.218 425.024 385.008 424.322 384.588 423.854C384.168 423.386 383.598 423.152 382.878 423.152C382.026 423.152 381.354 423.446 380.862 424.034C380.382 424.61 380.142 425.384 380.142 426.356V431ZM389.453 422.072H392.261V418.4H393.665V422.072H397.121V423.368H393.665V429.164C393.665 429.524 393.827 429.704 394.151 429.704H396.689V431H393.647C393.239 431 392.903 430.868 392.639 430.604C392.387 430.34 392.261 430.004 392.261 429.596V423.368H389.453V422.072ZM400.277 422.072H403.517V423.26H403.733C403.961 422.768 404.285 422.408 404.705 422.18C405.125 421.94 405.605 421.82 406.145 421.82C407.045 421.82 407.771 422.114 408.323 422.702C408.875 423.29 409.169 424.148 409.205 425.276L407.729 425.492C407.729 424.664 407.531 424.07 407.135 423.71C406.739 423.338 406.253 423.152 405.677 423.152C405.305 423.152 404.981 423.224 404.705 423.368C404.441 423.512 404.219 423.71 404.039 423.962C403.859 424.214 403.727 424.508 403.643 424.844C403.559 425.18 403.517 425.54 403.517 425.924V429.704H405.785V431H400.061V429.704H402.113V423.368H400.277V422.072ZM418.282 429.488H418.066C417.778 430.088 417.376 430.532 416.86 430.82C416.356 431.108 415.822 431.252 415.258 431.252C414.67 431.252 414.124 431.156 413.62 430.964C413.116 430.76 412.672 430.466 412.288 430.082C411.916 429.686 411.622 429.206 411.406 428.642C411.19 428.078 411.082 427.424 411.082 426.68V426.392C411.082 425.66 411.19 425.012 411.406 424.448C411.622 423.884 411.916 423.41 412.288 423.026C412.672 422.63 413.116 422.33 413.62 422.126C414.124 421.922 414.658 421.82 415.222 421.82C415.834 421.82 416.386 421.958 416.878 422.234C417.382 422.498 417.778 422.912 418.066 423.476H418.282V422.072H419.686V429.164C419.686 429.524 419.848 429.704 420.172 429.704H420.622V431H419.668C419.26 431 418.924 430.868 418.66 430.604C418.408 430.34 418.282 430.004 418.282 429.596V429.488ZM415.402 429.92C415.822 429.92 416.206 429.842 416.554 429.686C416.914 429.53 417.22 429.308 417.472 429.02C417.724 428.732 417.922 428.39 418.066 427.994C418.21 427.586 418.282 427.136 418.282 426.644V426.428C418.282 425.948 418.21 425.51 418.066 425.114C417.922 424.706 417.718 424.358 417.454 424.07C417.202 423.782 416.896 423.56 416.536 423.404C416.188 423.236 415.81 423.152 415.402 423.152C414.982 423.152 414.598 423.23 414.25 423.386C413.902 423.542 413.596 423.764 413.332 424.052C413.08 424.328 412.882 424.67 412.738 425.078C412.594 425.474 412.522 425.912 412.522 426.392V426.68C412.522 427.7 412.786 428.498 413.314 429.074C413.854 429.638 414.55 429.92 415.402 429.92ZM431.176 427.832C431.08 428.324 430.912 428.78 430.672 429.2C430.444 429.62 430.15 429.986 429.79 430.298C429.43 430.598 429.01 430.832 428.53 431C428.05 431.168 427.516 431.252 426.928 431.252C426.304 431.252 425.71 431.15 425.146 430.946C424.594 430.742 424.108 430.448 423.688 430.064C423.268 429.668 422.932 429.188 422.68 428.624C422.44 428.06 422.32 427.412 422.32 426.68V426.464C422.32 425.744 422.44 425.096 422.68 424.52C422.932 423.944 423.268 423.458 423.688 423.062C424.108 422.666 424.594 422.36 425.146 422.144C425.71 421.928 426.304 421.82 426.928 421.82C427.492 421.82 428.014 421.904 428.494 422.072C428.974 422.24 429.394 422.48 429.754 422.792C430.126 423.092 430.426 423.452 430.654 423.872C430.894 424.292 431.056 424.748 431.14 425.24L429.736 425.564C429.7 425.252 429.61 424.952 429.466 424.664C429.334 424.364 429.148 424.106 428.908 423.89C428.68 423.662 428.398 423.482 428.062 423.35C427.726 423.218 427.336 423.152 426.892 423.152C426.46 423.152 426.052 423.236 425.668 423.404C425.296 423.56 424.966 423.788 424.678 424.088C424.39 424.376 424.162 424.724 423.994 425.132C423.838 425.54 423.76 425.984 423.76 426.464V426.68C423.76 427.184 423.838 427.64 423.994 428.048C424.162 428.444 424.39 428.78 424.678 429.056C424.966 429.332 425.302 429.548 425.686 429.704C426.07 429.848 426.484 429.92 426.928 429.92C427.372 429.92 427.756 429.854 428.08 429.722C428.416 429.578 428.698 429.398 428.926 429.182C429.166 428.954 429.352 428.696 429.484 428.408C429.628 428.12 429.724 427.82 429.772 427.508L431.176 427.832ZM433.539 422.072H436.347V418.4H437.751V422.072H441.207V423.368H437.751V429.164C437.751 429.524 437.913 429.704 438.237 429.704H440.775V431H437.733C437.325 431 436.989 430.868 436.725 430.604C436.473 430.34 436.347 430.004 436.347 429.596V423.368H433.539V422.072ZM446.721 424.376C446.721 424.808 446.901 425.138 447.261 425.366C447.633 425.594 448.305 425.744 449.277 425.816C450.321 425.9 451.113 426.152 451.653 426.572C452.205 426.98 452.481 427.58 452.481 428.372V428.48C452.481 428.912 452.391 429.302 452.211 429.65C452.043 429.986 451.803 430.274 451.491 430.514C451.191 430.754 450.819 430.934 450.375 431.054C449.943 431.186 449.469 431.252 448.953 431.252C448.257 431.252 447.657 431.162 447.153 430.982C446.661 430.79 446.247 430.544 445.911 430.244C445.587 429.932 445.341 429.584 445.173 429.2C445.005 428.804 444.909 428.408 444.885 428.012L446.217 427.688C446.277 428.372 446.541 428.924 447.009 429.344C447.477 429.752 448.101 429.956 448.881 429.956C449.541 429.956 450.069 429.83 450.465 429.578C450.873 429.314 451.077 428.948 451.077 428.48C451.077 427.976 450.879 427.616 450.483 427.4C450.087 427.184 449.445 427.046 448.557 426.986C447.525 426.914 446.733 426.674 446.181 426.266C445.629 425.858 445.353 425.264 445.353 424.484V424.376C445.353 423.956 445.443 423.59 445.623 423.278C445.803 422.954 446.043 422.684 446.343 422.468C446.655 422.252 447.003 422.09 447.387 421.982C447.771 421.874 448.173 421.82 448.593 421.82C449.181 421.82 449.697 421.904 450.141 422.072C450.585 422.228 450.957 422.438 451.257 422.702C451.557 422.954 451.785 423.248 451.941 423.584C452.109 423.92 452.217 424.256 452.265 424.592L450.933 424.916C450.873 424.34 450.639 423.89 450.231 423.566C449.835 423.242 449.313 423.08 448.665 423.08C448.413 423.08 448.167 423.11 447.927 423.17C447.699 423.218 447.495 423.296 447.315 423.404C447.135 423.512 446.991 423.65 446.883 423.818C446.775 423.974 446.721 424.16 446.721 424.376Z" fill="black"/>
</g>
<g clip-path="url(#clip5_1_12)">
<path d="M372 650L866.5 113.75H-122.501L372 650Z" fill="#66FF99"/>
<path d="M356.974 524.352H357.19V512.4H358.702V525H355.678L352.042 513.048H351.826V525H350.314V512.4H353.338L356.974 524.352ZM370.011 520.644C370.011 521.388 369.885 522.048 369.633 522.624C369.393 523.188 369.069 523.668 368.661 524.064C368.253 524.448 367.773 524.742 367.221 524.946C366.681 525.15 366.117 525.252 365.529 525.252C364.929 525.252 364.359 525.15 363.819 524.946C363.279 524.742 362.805 524.448 362.397 524.064C361.989 523.668 361.659 523.188 361.407 522.624C361.167 522.048 361.047 521.388 361.047 520.644V520.428C361.047 519.696 361.167 519.048 361.407 518.484C361.659 517.908 361.989 517.422 362.397 517.026C362.817 516.63 363.297 516.33 363.837 516.126C364.377 515.922 364.941 515.82 365.529 515.82C366.117 515.82 366.681 515.922 367.221 516.126C367.761 516.33 368.235 516.63 368.643 517.026C369.063 517.422 369.393 517.908 369.633 518.484C369.885 519.048 370.011 519.696 370.011 520.428V520.644ZM365.529 523.92C365.961 523.92 366.357 523.848 366.717 523.704C367.089 523.548 367.413 523.326 367.689 523.038C367.965 522.75 368.181 522.408 368.337 522.012C368.493 521.604 368.571 521.148 368.571 520.644V520.428C368.571 519.948 368.493 519.51 368.337 519.114C368.181 518.706 367.965 518.358 367.689 518.07C367.413 517.782 367.089 517.56 366.717 517.404C366.345 517.236 365.949 517.152 365.529 517.152C365.109 517.152 364.713 517.236 364.341 517.404C363.969 517.56 363.645 517.782 363.369 518.07C363.093 518.358 362.877 518.706 362.721 519.114C362.565 519.51 362.487 519.948 362.487 520.428V520.644C362.487 521.148 362.565 521.604 362.721 522.012C362.877 522.408 363.093 522.75 363.369 523.038C363.645 523.326 363.963 523.548 364.323 523.704C364.695 523.848 365.097 523.92 365.529 523.92ZM379.521 523.632H379.305C379.161 523.908 378.975 524.148 378.747 524.352C378.531 524.556 378.291 524.724 378.027 524.856C377.775 524.988 377.505 525.084 377.217 525.144C376.929 525.216 376.653 525.252 376.389 525.252C375.789 525.252 375.231 525.15 374.715 524.946C374.199 524.742 373.743 524.448 373.347 524.064C372.963 523.68 372.657 523.206 372.429 522.642C372.213 522.066 372.105 521.412 372.105 520.68V520.392C372.105 519.672 372.219 519.03 372.447 518.466C372.675 517.89 372.981 517.41 373.365 517.026C373.749 516.63 374.199 516.33 374.715 516.126C375.231 515.922 375.777 515.82 376.353 515.82C376.965 515.82 377.535 515.958 378.063 516.234C378.603 516.498 379.017 516.912 379.305 517.476H379.521V512.4H380.925V525H379.521V523.632ZM376.533 523.92C376.953 523.92 377.343 523.842 377.703 523.686C378.063 523.53 378.375 523.308 378.639 523.02C378.915 522.732 379.131 522.39 379.287 521.994C379.443 521.586 379.521 521.136 379.521 520.644V520.428C379.521 519.948 379.443 519.51 379.287 519.114C379.131 518.706 378.915 518.358 378.639 518.07C378.375 517.782 378.057 517.56 377.685 517.404C377.325 517.236 376.941 517.152 376.533 517.152C376.113 517.152 375.717 517.23 375.345 517.386C374.985 517.542 374.667 517.764 374.391 518.052C374.127 518.34 373.917 518.682 373.761 519.078C373.617 519.474 373.545 519.912 373.545 520.392V520.68C373.545 521.184 373.617 521.634 373.761 522.03C373.917 522.426 374.127 522.768 374.391 523.056C374.667 523.332 374.985 523.548 375.345 523.704C375.705 523.848 376.101 523.92 376.533 523.92ZM384.656 520.968C384.692 521.856 384.968 522.57 385.484 523.11C386 523.65 386.72 523.92 387.644 523.92C388.064 523.92 388.43 523.872 388.742 523.776C389.054 523.68 389.318 523.548 389.534 523.38C389.762 523.212 389.942 523.02 390.074 522.804C390.218 522.576 390.332 522.336 390.416 522.084L391.748 522.444C391.496 523.272 391.028 523.95 390.344 524.478C389.672 524.994 388.76 525.252 387.608 525.252C386.972 525.252 386.384 525.144 385.844 524.928C385.316 524.7 384.86 524.382 384.476 523.974C384.092 523.566 383.792 523.08 383.576 522.516C383.36 521.952 383.252 521.328 383.252 520.644V520.212C383.252 519.588 383.36 519.006 383.576 518.466C383.804 517.926 384.116 517.464 384.512 517.08C384.908 516.684 385.37 516.378 385.898 516.162C386.438 515.934 387.02 515.82 387.644 515.82C388.376 515.82 389.006 515.958 389.534 516.234C390.074 516.498 390.512 516.828 390.848 517.224C391.196 517.62 391.448 518.052 391.604 518.52C391.772 518.988 391.856 519.42 391.856 519.816V520.968H384.656ZM387.644 517.152C387.248 517.152 386.876 517.218 386.528 517.35C386.192 517.47 385.892 517.644 385.628 517.872C385.376 518.1 385.166 518.37 384.998 518.682C384.842 518.982 384.74 519.312 384.692 519.672H390.452C390.428 519.288 390.332 518.94 390.164 518.628C390.008 518.316 389.798 518.052 389.534 517.836C389.282 517.62 388.988 517.452 388.652 517.332C388.328 517.212 387.992 517.152 387.644 517.152Z" fill="black"/>
</g>
<g clip-path="url(#clip6_1_12)">
<path d="M372 655L866.5 118.75H-122.501L372 655Z" fill="#66FF99"/>
<path d="M349.58 604.848C350.096 604.848 350.534 604.764 350.894 604.596C351.266 604.416 351.566 604.182 351.794 603.894C352.034 603.594 352.208 603.258 352.316 602.886C352.436 602.502 352.496 602.1 352.496 601.68V601.464H354.008V601.68C354.008 602.316 353.912 602.916 353.72 603.48C353.528 604.032 353.246 604.518 352.874 604.938C352.502 605.346 352.04 605.67 351.488 605.91C350.936 606.138 350.3 606.252 349.58 606.252C348.188 606.252 347.102 605.814 346.322 604.938C345.542 604.062 345.152 602.784 345.152 601.104V598.296C345.152 596.664 345.542 595.398 346.322 594.498C347.102 593.598 348.188 593.148 349.58 593.148C350.3 593.148 350.936 593.268 351.488 593.508C352.04 593.736 352.502 594.06 352.874 594.48C353.246 594.888 353.528 595.374 353.72 595.938C353.912 596.49 354.008 597.084 354.008 597.72V597.936H352.496V597.72C352.484 597.312 352.418 596.916 352.298 596.532C352.19 596.148 352.016 595.812 351.776 595.524C351.548 595.224 351.254 594.99 350.894 594.822C350.534 594.642 350.096 594.552 349.58 594.552C348.608 594.552 347.876 594.906 347.384 595.614C346.904 596.322 346.664 597.252 346.664 598.404V600.996C346.664 602.232 346.904 603.186 347.384 603.858C347.876 604.518 348.608 604.848 349.58 604.848ZM357.991 606H356.587V593.4H357.991V598.692H358.207C358.483 598.116 358.867 597.66 359.359 597.324C359.863 596.988 360.475 596.82 361.195 596.82C362.167 596.82 362.953 597.144 363.553 597.792C364.165 598.428 364.471 599.388 364.471 600.672V606H363.067V600.96C363.067 600.024 362.857 599.322 362.437 598.854C362.017 598.386 361.447 598.152 360.727 598.152C359.875 598.152 359.203 598.446 358.711 599.034C358.231 599.61 357.991 600.384 357.991 601.356V606ZM374.089 604.488H373.873C373.585 605.088 373.183 605.532 372.667 605.82C372.163 606.108 371.629 606.252 371.065 606.252C370.477 606.252 369.931 606.156 369.427 605.964C368.923 605.76 368.479 605.466 368.095 605.082C367.723 604.686 367.429 604.206 367.213 603.642C366.997 603.078 366.889 602.424 366.889 601.68V601.392C366.889 600.66 366.997 600.012 367.213 599.448C367.429 598.884 367.723 598.41 368.095 598.026C368.479 597.63 368.923 597.33 369.427 597.126C369.931 596.922 370.465 596.82 371.029 596.82C371.641 596.82 372.193 596.958 372.685 597.234C373.189 597.498 373.585 597.912 373.873 598.476H374.089V597.072H375.493V604.164C375.493 604.524 375.655 604.704 375.979 604.704H376.429V606H375.475C375.067 606 374.731 605.868 374.467 605.604C374.215 605.34 374.089 605.004 374.089 604.596V604.488ZM371.209 604.92C371.629 604.92 372.013 604.842 372.361 604.686C372.721 604.53 373.027 604.308 373.279 604.02C373.531 603.732 373.729 603.39 373.873 602.994C374.017 602.586 374.089 602.136 374.089 601.644V601.428C374.089 600.948 374.017 600.51 373.873 600.114C373.729 599.706 373.525 599.358 373.261 599.07C373.009 598.782 372.703 598.56 372.343 598.404C371.995 598.236 371.617 598.152 371.209 598.152C370.789 598.152 370.405 598.23 370.057 598.386C369.709 598.542 369.403 598.764 369.139 599.052C368.887 599.328 368.689 599.67 368.545 600.078C368.401 600.474 368.329 600.912 368.329 601.392V601.68C368.329 602.7 368.593 603.498 369.121 604.074C369.661 604.638 370.357 604.92 371.209 604.92ZM381.402 594.408C381.402 594.06 381.522 593.766 381.762 593.526C382.014 593.274 382.314 593.148 382.662 593.148C383.01 593.148 383.304 593.274 383.544 593.526C383.796 593.766 383.922 594.06 383.922 594.408C383.922 594.756 383.796 595.056 383.544 595.308C383.304 595.548 383.01 595.668 382.662 595.668C382.314 595.668 382.014 595.548 381.762 595.308C381.522 595.056 381.402 594.756 381.402 594.408ZM378.846 604.704H381.978V598.368H379.17V597.072H383.382V604.704H386.298V606H378.846V604.704ZM391.056 606H389.652V597.072H391.056V598.584H391.272C391.824 597.408 392.784 596.82 394.152 596.82C395.184 596.82 396.006 597.144 396.618 597.792C397.23 598.428 397.536 599.388 397.536 600.672V606H396.132V600.96C396.132 600.024 395.922 599.322 395.502 598.854C395.082 598.386 394.512 598.152 393.792 598.152C392.94 598.152 392.268 598.446 391.776 599.034C391.296 599.61 391.056 600.384 391.056 601.356V606Z" fill="black"/>
</g>
<defs>
<clipPath id="clip0_1_12">
<rect width="743" height="90" fill="white"/>
</clipPath>
<clipPath id="clip1_1_12">
<rect width="743" height="90" fill="white" transform="translate(0 95)"/>
</clipPath>
<clipPath id="clip2_1_12">
<rect width="743" height="89" fill="white" transform="translate(0 190)"/>
</clipPath>
<clipPath id="clip3_1_12">
<rect width="743" height="90" fill="white" transform="translate(0 284)"/>
</clipPath>
<clipPath id="clip4_1_12">
<rect width="743" height="90" fill="white" transform="translate(0 379)"/>
</clipPath>
<clipPath id="clip5_1_12">
<rect width="743" height="89" fill="white" transform="translate(0 474)"/>
</clipPath>
<clipPath id="clip6_1_12">
<rect width="743" height="90" fill="white" transform="translate(0 568)"/>
</clipPath>
</defs>
</svg>
